<?xml version="1.0" standalone="no"?>
<!DOCTYPE svg PUBLIC "-//W3C//DTD SVG 20010904//EN"
 "http://www.w3.org/TR/2001/REC-SVG-20010904/DTD/svg10.dtd">
<svg version="1.0" xmlns="http://www.w3.org/2000/svg"
 width="168.000000pt" height="168.000000pt" viewBox="0 0 168.000000 168.000000"
 preserveAspectRatio="xMidYMid meet">
<metadata>
Created by potrace 1.14, written by Peter Selinger 2001-2017
</metadata>
<g transform="translate(0.000000,168.000000) scale(0.100000,-0.100000)"
fill="#000000" stroke="none">
<path d="M1413 1358 c-65 -20 -103 -36 -103 -44 0 -18 13 -18 90 6 110 34 100
56 100 -230 0 -216 2 -250 15 -250 13 0 15 37 15 275 0 151 -3 275 -7 274 -5
-1 -54 -15 -110 -31z"/>
<path d="M1085 1131 l-280 -88 -3 -287 c-1 -157 -1 -286 0 -286 2 0 131 40
288 89 205 64 286 94 288 105 2 9 1 16 -2 16 -2 0 -120 -36 -260 -80 -140 -44
-260 -80 -266 -80 -7 0 -10 57 -8 186 l3 186 265 83 c195 60 266 87 268 99 2
9 2 16 0 16 -3 0 -125 -38 -272 -84 l-267 -83 3 49 3 50 265 83 c191 60 266
87 268 99 2 9 0 16 -5 15 -4 0 -134 -40 -288 -88z"/>
<path d="M435 930 l-280 -88 -3 -272 c-2 -246 -1 -272 14 -266 8 3 18 6 20 6
2 0 4 85 4 190 l0 189 158 50 c86 27 206 65 266 83 94 28 129 48 114 63 -2 2
-124 -34 -271 -79 l-268 -84 3 50 3 50 265 83 c196 61 266 86 268 98 2 10 0
17 -5 16 -4 0 -134 -40 -288 -89z"/>
</g>
</svg>
