<?xml version="1.0" standalone="no"?>
<!DOCTYPE svg PUBLIC "-//W3C//DTD SVG 20010904//EN"
 "http://www.w3.org/TR/2001/REC-SVG-20010904/DTD/svg10.dtd">
<svg version="1.0" xmlns="http://www.w3.org/2000/svg"
 width="758.000000pt" height="758.000000pt" viewBox="0 0 758.000000 758.000000"
 preserveAspectRatio="xMidYMid meet">
<metadata>
Created by potrace 1.14, written by Peter Selinger 2001-2017
</metadata>
<g transform="translate(0.000000,758.000000) scale(0.100000,-0.100000)"
fill="#000000" stroke="none">
<path d="M7548 6785 c-2 -3 -72 -24 -154 -47 -175 -48 -177 -49 -449 -127
-115 -34 -232 -68 -260 -76 -27 -8 -59 -17 -70 -20 -11 -2 -72 -19 -135 -37
l-115 -34 0 -84 c0 -97 -3 -96 90 -68 33 10 69 20 80 23 11 2 44 11 73 20 28
8 76 22 105 30 28 9 61 18 72 20 11 3 52 14 90 25 39 12 133 39 210 60 77 22
171 48 210 59 38 11 72 17 75 14 3 -2 6 -368 8 -811 6 -1978 6 -1997 22 -1995
8 1 40 9 70 18 30 9 64 18 74 20 11 3 22 9 26 15 7 12 10 2953 3 2981 -5 19
-15 24 -25 14z"/>
<path d="M6660 5840 c-101 -32 -358 -113 -370 -116 -8 -2 -80 -24 -160 -50
-80 -25 -149 -47 -155 -48 -5 -1 -48 -15 -95 -30 -47 -15 -92 -29 -100 -31 -8
-2 -44 -13 -80 -25 -60 -21 -341 -108 -640 -200 -69 -21 -152 -47 -185 -58
-33 -11 -114 -36 -180 -56 -66 -21 -196 -61 -290 -91 -93 -29 -208 -66 -255
-80 -47 -15 -191 -60 -320 -102 -129 -41 -241 -75 -247 -76 -7 0 -14 -3 -14
-6 -6 -22 -9 -621 -9 -1636 0 -1302 1 -1474 7 -1492 4 -9 14 -8 44 2 22 8 43
15 47 16 4 1 12 3 17 5 6 1 26 7 45 13 19 5 79 23 132 39 53 16 99 27 102 24
4 -3 6 0 6 6 0 7 11 12 23 12 13 0 27 3 31 7 3 4 12 8 19 9 15 2 205 60 277
84 75 25 262 83 279 86 8 2 55 16 105 32 50 17 145 47 211 67 66 20 149 46
185 58 36 12 67 22 70 22 38 9 118 33 165 51 11 4 25 8 30 9 6 2 42 13 80 25
39 12 104 32 145 45 41 13 149 47 240 75 91 29 192 60 225 70 74 22 347 107
520 163 72 22 133 41 137 41 15 2 19 18 19 77 -1 68 -3 91 -11 99 -6 5 -105
-22 -205 -55 -86 -29 -998 -314 -1040 -325 -16 -5 -50 -15 -75 -23 -25 -9 -99
-32 -165 -52 -66 -20 -138 -43 -160 -50 -37 -13 -80 -26 -325 -101 -47 -15
-139 -44 -205 -65 -66 -21 -172 -53 -235 -73 -63 -19 -182 -55 -265 -81 -82
-26 -154 -48 -160 -49 -5 -2 -34 -10 -64 -19 -30 -9 -56 -17 -58 -17 -2 0 -3
466 -3 1035 0 569 2 1035 4 1035 2 0 100 30 218 66 117 36 227 70 243 74 17 5
77 24 135 42 58 19 109 35 113 35 4 1 20 5 35 11 15 6 92 30 172 55 80 25 217
68 305 95 88 28 228 71 310 97 83 25 200 62 260 82 61 19 117 36 125 38 8 2
34 10 58 19 23 8 43 15 45 15 1 0 9 2 17 5 8 3 49 15 90 26 41 12 84 25 95 30
20 8 210 67 230 71 6 1 35 10 65 21 30 11 64 21 75 24 11 2 103 30 205 63
l184 58 3 81 c1 45 -1 84 -6 86 -4 3 -37 -4 -72 -15 -35 -11 -73 -22 -84 -24
-11 -3 -51 -15 -90 -28 -38 -13 -74 -25 -80 -26 -5 0 -68 -19 -140 -42 -71
-22 -173 -54 -225 -70 -52 -16 -138 -43 -190 -60 -53 -17 -102 -31 -110 -33
-8 -2 -22 -6 -30 -9 -18 -7 -263 -83 -420 -131 -63 -19 -142 -44 -175 -54 -33
-11 -107 -34 -165 -52 -58 -17 -112 -34 -120 -37 -8 -3 -19 -7 -25 -8 -10 -3
-51 -16 -500 -155 -126 -40 -257 -80 -290 -90 -33 -10 -98 -30 -144 -44 -132
-40 -119 -66 -117 236 l1 262 110 34 c61 18 160 49 220 68 61 20 117 37 125
39 8 2 29 9 45 15 17 6 37 13 45 15 8 2 46 13 84 25 38 12 76 23 85 25 9 2
131 40 271 85 140 44 314 99 385 121 72 22 200 62 285 89 266 84 927 289 1115
347 99 31 183 60 186 65 3 5 6 45 6 89 1 85 -1 87 -57 69z"/>
<path d="M3080 4734 c-41 -12 -75 -23 -75 -24 0 -1 -7 -3 -15 -5 -9 -1 -83
-24 -165 -49 -83 -26 -215 -68 -295 -92 -80 -25 -181 -57 -225 -71 -44 -14
-87 -26 -95 -28 -8 -2 -49 -15 -90 -28 -87 -30 -270 -86 -285 -88 -5 -1 -26
-7 -45 -14 -19 -8 -96 -32 -170 -55 -74 -23 -164 -51 -200 -63 -36 -11 -66
-20 -67 -19 -2 1 -20 -5 -40 -12 -34 -13 -152 -50 -553 -173 -63 -19 -140 -44
-170 -54 -30 -10 -116 -37 -190 -59 -74 -23 -144 -44 -155 -48 -11 -3 -23 -7
-27 -8 -5 -1 -10 -3 -13 -4 -3 -1 -8 -3 -12 -5 -5 -1 -15 -4 -23 -8 -8 -3 -50
-16 -93 -28 l-77 -22 0 -1487 c0 -818 3 -1490 6 -1493 5 -5 53 8 139 39 l40
14 3 832 c3 932 7 1246 13 1251 3 3 171 58 189 62 10 2 246 77 285 90 55 19
194 63 284 90 42 13 150 47 241 75 91 28 170 53 175 54 6 2 17 6 25 9 15 5
391 123 505 157 33 10 105 32 160 50 55 17 105 32 110 33 6 1 24 8 40 14 17 6
100 32 185 58 85 25 162 49 170 52 8 3 20 7 25 8 6 2 48 15 95 30 47 15 92 28
100 30 8 2 98 30 200 62 l185 58 3 92 3 92 -58 -19 c-32 -10 -168 -52 -303
-95 -299 -94 -333 -104 -342 -105 -5 0 -25 -7 -45 -14 -21 -8 -85 -29 -143
-46 -58 -18 -116 -36 -130 -41 -14 -5 -34 -11 -45 -14 -11 -2 -85 -25 -165
-51 -80 -25 -149 -47 -155 -48 -5 -2 -17 -6 -25 -9 -25 -9 -120 -39 -133 -41
-7 -1 -73 -21 -147 -45 -74 -23 -148 -47 -165 -52 -16 -4 -57 -17 -90 -28 -33
-11 -130 -41 -215 -66 -85 -26 -161 -49 -168 -51 -7 -2 -13 -3 -15 -3 -1 0
-15 -5 -32 -11 -37 -15 -314 -101 -337 -105 -9 -2 -26 -9 -37 -15 -12 -6 -21
-8 -21 -4 0 3 -7 1 -15 -6 -8 -7 -15 -10 -15 -6 0 3 -24 -3 -52 -13 -29 -11
-65 -22 -80 -25 -14 -3 -33 -9 -42 -12 -15 -6 -16 19 -14 262 l3 269 155 48
c323 102 735 230 745 232 5 1 17 5 25 8 8 3 47 16 85 28 39 11 120 37 180 56
61 19 115 36 120 37 6 1 70 21 143 44 72 23 192 60 265 83 72 22 195 61 271
85 77 25 146 46 155 48 9 2 23 6 31 9 23 9 149 49 163 51 30 6 73 19 82 25 6
3 15 6 20 7 10 2 36 10 320 99 83 26 161 50 175 53 14 3 28 10 32 16 10 15 10
164 1 169 -5 2 -42 -6 -83 -19z"/>
</g>
</svg>
